<mxfile host="app.diagrams.net" modified="2020-06-10T11:07:58.541Z" agent="5.0 (X11; Linux x86_64) AppleWebKit/537.36 (KHTML, like Gecko) Chrome/83.0.4103.97 Safari/537.36" etag="IvF_53ZLB3npfZC1PYup" version="13.2.1" type="github" pages="2">
  <diagram id="prtHgNgQTEPvFCAcTncT" name="Page-1">
    <mxGraphModel dx="1421" dy="738" grid="1" gridSize="10" guides="1" tooltips="1" connect="1" arrows="1" fold="1" page="1" pageScale="1" pageWidth="827" pageHeight="1169" math="0" shadow="0">
      <root>
        <mxCell id="0" />
        <mxCell id="1" parent="0" />
        <mxCell id="dNxyNK7c78bLwvsdeMH5-11" value="LF2 Aufgabe 2.3.3.1&amp;nbsp; / 1" style="swimlane;html=1;startSize=20;horizontal=1;containerType=tree;glass=0;" parent="1" vertex="1">
          <mxGeometry x="40" y="80" width="1250" height="590" as="geometry" />
        </mxCell>
        <mxCell id="lZeLuXClH63nxUoIVjLt-2" style="edgeStyle=orthogonalEdgeStyle;rounded=0;orthogonalLoop=1;jettySize=auto;html=1;" parent="dNxyNK7c78bLwvsdeMH5-11" source="dNxyNK7c78bLwvsdeMH5-12" target="lZeLuXClH63nxUoIVjLt-1" edge="1">
          <mxGeometry relative="1" as="geometry">
            <Array as="points">
              <mxPoint x="374" y="140" />
              <mxPoint x="140" y="140" />
            </Array>
          </mxGeometry>
        </mxCell>
        <mxCell id="lZeLuXClH63nxUoIVjLt-29" style="edgeStyle=orthogonalEdgeStyle;rounded=0;orthogonalLoop=1;jettySize=auto;html=1;" parent="dNxyNK7c78bLwvsdeMH5-11" source="dNxyNK7c78bLwvsdeMH5-12" target="lZeLuXClH63nxUoIVjLt-28" edge="1">
          <mxGeometry relative="1" as="geometry">
            <Array as="points">
              <mxPoint x="474" y="140" />
              <mxPoint x="580" y="140" />
            </Array>
          </mxGeometry>
        </mxCell>
        <mxCell id="lZeLuXClH63nxUoIVjLt-52" style="edgeStyle=orthogonalEdgeStyle;rounded=0;orthogonalLoop=1;jettySize=auto;html=1;" parent="dNxyNK7c78bLwvsdeMH5-11" source="dNxyNK7c78bLwvsdeMH5-12" target="lZeLuXClH63nxUoIVjLt-51" edge="1">
          <mxGeometry relative="1" as="geometry">
            <Array as="points">
              <mxPoint x="474" y="140" />
              <mxPoint x="930" y="140" />
            </Array>
          </mxGeometry>
        </mxCell>
        <mxCell id="lZeLuXClH63nxUoIVjLt-54" style="edgeStyle=orthogonalEdgeStyle;rounded=0;orthogonalLoop=1;jettySize=auto;html=1;" parent="dNxyNK7c78bLwvsdeMH5-11" source="dNxyNK7c78bLwvsdeMH5-12" target="lZeLuXClH63nxUoIVjLt-53" edge="1">
          <mxGeometry relative="1" as="geometry">
            <Array as="points">
              <mxPoint x="474" y="140" />
              <mxPoint x="1130" y="140" />
            </Array>
          </mxGeometry>
        </mxCell>
        <UserObject label="&lt;i&gt;%position%&lt;/i&gt;&lt;br&gt;&lt;font color=&quot;#666666&quot;&gt;%name%&lt;/font&gt;&lt;br&gt;" name="Herr Bosse" position="Geschäftsführung" location="" email="" placeholders="1" id="dNxyNK7c78bLwvsdeMH5-12">
          <mxCell style="label;image=https://cdn3.iconfinder.com/data/icons/user-avatars-1/512/users-8-2-128.png;whiteSpace=wrap;html=1;rounded=0;glass=0;treeMoving=1;treeFolding=1;" parent="dNxyNK7c78bLwvsdeMH5-11" vertex="1">
            <mxGeometry x="384" y="50" width="180" height="70" as="geometry" />
          </mxCell>
        </UserObject>
        <mxCell id="lZeLuXClH63nxUoIVjLt-6" style="edgeStyle=orthogonalEdgeStyle;rounded=0;orthogonalLoop=1;jettySize=auto;html=1;" parent="dNxyNK7c78bLwvsdeMH5-11" source="lZeLuXClH63nxUoIVjLt-1" target="lZeLuXClH63nxUoIVjLt-5" edge="1">
          <mxGeometry relative="1" as="geometry" />
        </mxCell>
        <mxCell id="lZeLuXClH63nxUoIVjLt-7" style="edgeStyle=orthogonalEdgeStyle;rounded=0;orthogonalLoop=1;jettySize=auto;html=1;" parent="dNxyNK7c78bLwvsdeMH5-11" source="lZeLuXClH63nxUoIVjLt-1" target="lZeLuXClH63nxUoIVjLt-4" edge="1">
          <mxGeometry relative="1" as="geometry" />
        </mxCell>
        <UserObject label="&lt;i&gt;%position%&lt;/i&gt;&lt;br&gt;&lt;font color=&quot;#666666&quot;&gt;%name%&lt;/font&gt;&lt;br&gt;" name="Herr Sommer" position="Verkaufsleitung" location="" email="" placeholders="1" id="lZeLuXClH63nxUoIVjLt-1">
          <mxCell style="label;image=https://cdn3.iconfinder.com/data/icons/user-avatars-1/512/users-10-3-128.png;whiteSpace=wrap;html=1;rounded=0;glass=0;treeMoving=1;treeFolding=1;" parent="dNxyNK7c78bLwvsdeMH5-11" vertex="1">
            <mxGeometry x="150" y="180" width="180" height="70" as="geometry" />
          </mxCell>
        </UserObject>
        <mxCell id="lZeLuXClH63nxUoIVjLt-10" style="edgeStyle=orthogonalEdgeStyle;rounded=0;orthogonalLoop=1;jettySize=auto;html=1;" parent="dNxyNK7c78bLwvsdeMH5-11" source="lZeLuXClH63nxUoIVjLt-4" target="lZeLuXClH63nxUoIVjLt-8" edge="1">
          <mxGeometry relative="1" as="geometry" />
        </mxCell>
        <UserObject label="%department%" placeholders="1" department="Außland" id="lZeLuXClH63nxUoIVjLt-4">
          <mxCell style="rounded=1;whiteSpace=wrap;html=1;glass=0;align=center;" parent="dNxyNK7c78bLwvsdeMH5-11" vertex="1">
            <mxGeometry x="250" y="280" width="110" height="30" as="geometry" />
          </mxCell>
        </UserObject>
        <mxCell id="lZeLuXClH63nxUoIVjLt-9" style="edgeStyle=orthogonalEdgeStyle;rounded=0;orthogonalLoop=1;jettySize=auto;html=1;" parent="dNxyNK7c78bLwvsdeMH5-11" source="lZeLuXClH63nxUoIVjLt-5" target="lZeLuXClH63nxUoIVjLt-8" edge="1">
          <mxGeometry relative="1" as="geometry" />
        </mxCell>
        <UserObject label="%department%" placeholders="1" department="Inland" id="lZeLuXClH63nxUoIVjLt-5">
          <mxCell style="rounded=1;whiteSpace=wrap;html=1;glass=0;align=center;" parent="dNxyNK7c78bLwvsdeMH5-11" vertex="1">
            <mxGeometry x="120" y="280" width="110" height="30" as="geometry" />
          </mxCell>
        </UserObject>
        <mxCell id="lZeLuXClH63nxUoIVjLt-26" style="edgeStyle=orthogonalEdgeStyle;rounded=0;orthogonalLoop=1;jettySize=auto;html=1;" parent="dNxyNK7c78bLwvsdeMH5-11" source="lZeLuXClH63nxUoIVjLt-8" target="lZeLuXClH63nxUoIVjLt-11" edge="1">
          <mxGeometry relative="1" as="geometry" />
        </mxCell>
        <mxCell id="lZeLuXClH63nxUoIVjLt-27" style="edgeStyle=orthogonalEdgeStyle;rounded=0;orthogonalLoop=1;jettySize=auto;html=1;" parent="dNxyNK7c78bLwvsdeMH5-11" source="lZeLuXClH63nxUoIVjLt-8" target="lZeLuXClH63nxUoIVjLt-25" edge="1">
          <mxGeometry relative="1" as="geometry">
            <Array as="points">
              <mxPoint x="240" y="450" />
              <mxPoint x="350" y="450" />
            </Array>
          </mxGeometry>
        </mxCell>
        <UserObject label="&lt;i&gt;%position%&lt;/i&gt;&lt;br&gt;&lt;font color=&quot;#666666&quot;&gt;%name%&lt;/font&gt;&lt;br&gt;" name="Frau Schick" position="Gruppenleiterin Computereinkauf" location="" email="" placeholders="1" id="lZeLuXClH63nxUoIVjLt-8">
          <mxCell style="label;image=https://cdn3.iconfinder.com/data/icons/user-avatars-1/512/users-3-128.png;whiteSpace=wrap;html=1;rounded=0;glass=0;treeMoving=1;treeFolding=1;" parent="dNxyNK7c78bLwvsdeMH5-11" vertex="1">
            <mxGeometry x="150" y="350" width="180" height="70" as="geometry" />
          </mxCell>
        </UserObject>
        <UserObject label="&lt;i&gt;%position%&lt;/i&gt;&lt;br&gt;&lt;font color=&quot;#666666&quot;&gt;%name%&lt;/font&gt;&lt;br&gt;" name="Herr Max" position="Hardware" location="" email="" placeholders="1" id="lZeLuXClH63nxUoIVjLt-11">
          <mxCell style="label;image=https://cdn3.iconfinder.com/data/icons/user-avatars-1/512/users-9-2-128.png;whiteSpace=wrap;html=1;rounded=0;glass=0;treeMoving=1;treeFolding=1;" parent="dNxyNK7c78bLwvsdeMH5-11" vertex="1">
            <mxGeometry x="40" y="480" width="180" height="70" as="geometry" />
          </mxCell>
        </UserObject>
        <UserObject label="&lt;i&gt;%position%&lt;/i&gt;&lt;br&gt;&lt;font color=&quot;#666666&quot;&gt;%name%&lt;/font&gt;&lt;br&gt;" name="Herr Moritz" position="Software" location="" email="" placeholders="1" id="lZeLuXClH63nxUoIVjLt-25">
          <mxCell style="label;image=https://cdn3.iconfinder.com/data/icons/user-avatars-1/512/users-8-2-128.png;whiteSpace=wrap;html=1;rounded=0;glass=0;treeMoving=1;treeFolding=1;" parent="dNxyNK7c78bLwvsdeMH5-11" vertex="1">
            <mxGeometry x="260" y="480" width="180" height="70" as="geometry" />
          </mxCell>
        </UserObject>
        <mxCell id="lZeLuXClH63nxUoIVjLt-39" style="edgeStyle=orthogonalEdgeStyle;rounded=0;orthogonalLoop=1;jettySize=auto;html=1;" parent="dNxyNK7c78bLwvsdeMH5-11" source="lZeLuXClH63nxUoIVjLt-28" target="lZeLuXClH63nxUoIVjLt-33" edge="1">
          <mxGeometry relative="1" as="geometry" />
        </mxCell>
        <mxCell id="lZeLuXClH63nxUoIVjLt-42" style="edgeStyle=orthogonalEdgeStyle;rounded=0;orthogonalLoop=1;jettySize=auto;html=1;" parent="dNxyNK7c78bLwvsdeMH5-11" source="lZeLuXClH63nxUoIVjLt-28" target="lZeLuXClH63nxUoIVjLt-32" edge="1">
          <mxGeometry relative="1" as="geometry">
            <Array as="points">
              <mxPoint x="580" y="310" />
              <mxPoint x="430" y="310" />
            </Array>
          </mxGeometry>
        </mxCell>
        <mxCell id="lZeLuXClH63nxUoIVjLt-43" style="edgeStyle=orthogonalEdgeStyle;rounded=0;orthogonalLoop=1;jettySize=auto;html=1;" parent="dNxyNK7c78bLwvsdeMH5-11" source="lZeLuXClH63nxUoIVjLt-28" target="lZeLuXClH63nxUoIVjLt-38" edge="1">
          <mxGeometry relative="1" as="geometry">
            <Array as="points">
              <mxPoint x="580" y="310" />
              <mxPoint x="730" y="310" />
            </Array>
          </mxGeometry>
        </mxCell>
        <UserObject label="%department%" placeholders="1" department="Verwaltungsabteilung" id="lZeLuXClH63nxUoIVjLt-28">
          <mxCell style="rounded=1;whiteSpace=wrap;html=1;glass=0;align=center;" parent="dNxyNK7c78bLwvsdeMH5-11" vertex="1">
            <mxGeometry x="375" y="180" width="410" height="30" as="geometry" />
          </mxCell>
        </UserObject>
        <UserObject label="&lt;i&gt;%position%&lt;/i&gt;&lt;br&gt;&lt;font color=&quot;#666666&quot;&gt;%name%&lt;/font&gt;&lt;br&gt;" name="Herr Döring" position="Abteilungsleiter" location="" email="" placeholders="1" id="lZeLuXClH63nxUoIVjLt-30">
          <mxCell style="label;image=https://cdn3.iconfinder.com/data/icons/user-avatars-1/512/users-9-2-128.png;whiteSpace=wrap;html=1;rounded=0;glass=0;treeMoving=1;treeFolding=1;" parent="dNxyNK7c78bLwvsdeMH5-11" vertex="1" collapsed="1">
            <mxGeometry x="375" y="210" width="180" height="70" as="geometry" />
          </mxCell>
        </UserObject>
        <mxCell id="lZeLuXClH63nxUoIVjLt-45" style="edgeStyle=orthogonalEdgeStyle;rounded=0;orthogonalLoop=1;jettySize=auto;html=1;" parent="dNxyNK7c78bLwvsdeMH5-11" source="lZeLuXClH63nxUoIVjLt-31" target="lZeLuXClH63nxUoIVjLt-44" edge="1">
          <mxGeometry relative="1" as="geometry">
            <Array as="points">
              <mxPoint x="820" y="245" />
            </Array>
          </mxGeometry>
        </mxCell>
        <UserObject label="&lt;i&gt;%position%&lt;/i&gt;&lt;br&gt;&lt;font color=&quot;#666666&quot;&gt;%name%&lt;/font&gt;&lt;br&gt;" name="Herr Beier" position="Abteilungsleiter" location="" email="" placeholders="1" id="lZeLuXClH63nxUoIVjLt-31">
          <mxCell style="label;image=https://cdn3.iconfinder.com/data/icons/user-avatars-1/512/users-9-2-128.png;whiteSpace=wrap;html=1;rounded=0;glass=0;treeMoving=1;treeFolding=1;" parent="dNxyNK7c78bLwvsdeMH5-11" vertex="1">
            <mxGeometry x="605" y="210" width="180" height="70" as="geometry" />
          </mxCell>
        </UserObject>
        <UserObject label="%department%" placeholders="1" department="Rechnungswesen" id="lZeLuXClH63nxUoIVjLt-32">
          <mxCell style="rounded=1;whiteSpace=wrap;html=1;glass=0;align=center;" parent="dNxyNK7c78bLwvsdeMH5-11" vertex="1">
            <mxGeometry x="360" y="340" width="140" height="30" as="geometry" />
          </mxCell>
        </UserObject>
        <UserObject label="%department%" placeholders="1" department="Personalwesen" id="lZeLuXClH63nxUoIVjLt-33">
          <mxCell style="rounded=1;whiteSpace=wrap;html=1;glass=0;align=center;" parent="dNxyNK7c78bLwvsdeMH5-11" vertex="1">
            <mxGeometry x="510" y="340" width="140" height="30" as="geometry" />
          </mxCell>
        </UserObject>
        <UserObject label="%department%" placeholders="1" department="Kasse" id="lZeLuXClH63nxUoIVjLt-38">
          <mxCell style="rounded=1;whiteSpace=wrap;html=1;glass=0;align=center;" parent="dNxyNK7c78bLwvsdeMH5-11" vertex="1">
            <mxGeometry x="660" y="340" width="140" height="30" as="geometry" />
          </mxCell>
        </UserObject>
        <mxCell id="lZeLuXClH63nxUoIVjLt-47" style="edgeStyle=orthogonalEdgeStyle;rounded=0;orthogonalLoop=1;jettySize=auto;html=1;" parent="dNxyNK7c78bLwvsdeMH5-11" source="lZeLuXClH63nxUoIVjLt-44" target="lZeLuXClH63nxUoIVjLt-46" edge="1">
          <mxGeometry relative="1" as="geometry" />
        </mxCell>
        <UserObject label="&lt;i&gt;%position%&lt;/i&gt;&lt;br&gt;&lt;font color=&quot;#666666&quot;&gt;%name%&lt;/font&gt;&lt;br&gt;" name="Herr Hartung" position="Netzwerkeinkauf" location="" email="" placeholders="1" id="lZeLuXClH63nxUoIVjLt-44">
          <mxCell style="label;image=https://cdn3.iconfinder.com/data/icons/user-avatars-1/512/users-10-3-128.png;whiteSpace=wrap;html=1;rounded=0;glass=0;treeMoving=1;treeFolding=1;" parent="dNxyNK7c78bLwvsdeMH5-11" vertex="1">
            <mxGeometry x="730" y="390" width="180" height="70" as="geometry" />
          </mxCell>
        </UserObject>
        <UserObject label="&lt;i&gt;%position%&lt;/i&gt;&lt;br&gt;&lt;font color=&quot;#666666&quot;&gt;%name%&lt;/font&gt;&lt;br&gt;" name="Meister Lange" position="Lager" location="" email="" placeholders="1" id="lZeLuXClH63nxUoIVjLt-46">
          <mxCell style="label;image=https://cdn3.iconfinder.com/data/icons/user-avatars-1/512/users-9-2-128.png;whiteSpace=wrap;html=1;rounded=0;glass=0;treeMoving=1;treeFolding=1;" parent="dNxyNK7c78bLwvsdeMH5-11" vertex="1">
            <mxGeometry x="730" y="500" width="180" height="71" as="geometry" />
          </mxCell>
        </UserObject>
        <UserObject label="&lt;i&gt;%position%&lt;/i&gt;&lt;br&gt;&lt;font color=&quot;#666666&quot;&gt;%name%&lt;/font&gt;&lt;br&gt;" name="Frau Drache" position="Seketeriat" location="" email="" placeholders="1" id="lZeLuXClH63nxUoIVjLt-51">
          <mxCell style="label;image=https://cdn3.iconfinder.com/data/icons/user-avatars-1/512/users-5-128.png;whiteSpace=wrap;html=1;rounded=0;glass=0;treeMoving=1;treeFolding=1;" parent="dNxyNK7c78bLwvsdeMH5-11" vertex="1">
            <mxGeometry x="840" y="200" width="180" height="70" as="geometry" />
          </mxCell>
        </UserObject>
        <UserObject label="&lt;i&gt;%position%&lt;/i&gt;&lt;br&gt;&lt;font color=&quot;#666666&quot;&gt;%name%&lt;/font&gt;&lt;br&gt;" name="Herr Dr.Simon" position="Syndicus" location="" email="" placeholders="1" id="lZeLuXClH63nxUoIVjLt-53">
          <mxCell style="label;image=https://cdn3.iconfinder.com/data/icons/user-avatars-1/512/users-9-2-128.png;whiteSpace=wrap;html=1;rounded=0;glass=0;treeMoving=1;treeFolding=1;" parent="dNxyNK7c78bLwvsdeMH5-11" vertex="1">
            <mxGeometry x="1040" y="199" width="180" height="71" as="geometry" />
          </mxCell>
        </UserObject>
      </root>
    </mxGraphModel>
  </diagram>
  <diagram id="cvJ_WHXBnqZolHbTQxHa" name="Page-2">
    <mxGraphModel dx="1421" dy="788" grid="1" gridSize="10" guides="1" tooltips="1" connect="1" arrows="1" fold="1" page="1" pageScale="1" pageWidth="827" pageHeight="1169" math="0" shadow="0">
      <root>
        <mxCell id="qOPi0OvNiu83JlgxurBB-0" />
        <mxCell id="qOPi0OvNiu83JlgxurBB-1" parent="qOPi0OvNiu83JlgxurBB-0" />
      </root>
    </mxGraphModel>
  </diagram>
</mxfile>
